<svg xmlns="http://www.w3.org/2000/svg" viewBox="0 0 157.72 211.91"><g id="Layer_2" data-name="Layer 2"><g id="Layer_1-2" data-name="Layer 1"><path d="M47.5,200.87c-19-13.84-30.34-33-32.83-55.52-2.35-21.2,3.59-43.8,16.72-63.63a.82.82,0,0,1,1.12-.23.81.81,0,0,1,.22,1.12C5,124.5,11.42,172.49,48.36,199.5a66.26,66.26,0,0,0,4.4-8.45C26.43,165.94,26.4,143.3,26.39,134.74c-.05-34.45,34.6-56.84,35-57.07A.8.8,0,0,1,62.2,79c-.34.22-34.25,22.15-34.2,55.62,0,9.19,0,30.36,25.43,54.8a57.7,57.7,0,0,0,3.42-12.33,86.93,86.93,0,0,1-15.61-30c-7.41-25.78,12.52-45.27,25.46-52.73a.81.81,0,0,1,.81,1.4C55,103.05,35.65,121.89,42.79,146.71a85.94,85.94,0,0,0,15.3,29.5.79.79,0,0,1,.38.46c6.75,8.17,14.27,13.46,20.56,13.46s13.8-5.29,20.55-13.46a.79.79,0,0,1,.38-.46,85.94,85.94,0,0,0,15.3-29.5c7.14-24.82-12.18-43.66-24.71-50.88a.81.81,0,0,1,.8-1.4c12.94,7.46,32.87,26.95,25.46,52.73a86.93,86.93,0,0,1-15.61,30,57.7,57.7,0,0,0,3.43,12.33C130,165,130,143.84,130.06,134.73c0-33.57-33.87-55.48-34.21-55.7a.8.8,0,1,1,.86-1.36c.35.23,35,22.62,35,57,0,8.64,0,31.29-26.38,56.4a66.26,66.26,0,0,0,4.4,8.45c36.94-27,43.39-75,15.63-116.89a.8.8,0,1,1,1.34-.89c13.14,19.83,19.08,42.43,16.72,63.63-2.49,22.49-13.84,41.68-32.82,55.52a61.15,61.15,0,0,0,7.23,9.22c19.62-12.21,34.77-38.49,37.76-65.63,2.09-18.82-.69-46.3-25.75-70.37a.79.79,0,0,1,0-1.13.81.81,0,0,1,1.14,0c25.52,24.52,28.36,52.53,26.24,71.71-3.08,27.86-18.78,54.84-39.07,67.15a.81.81,0,0,1-.42.12.77.77,0,0,1-.55-.22,65.94,65.94,0,0,1-13.34-20.08,1.42,1.42,0,0,1-.13-.12.81.81,0,0,1-.21-.69,60.5,60.5,0,0,1-3.6-12.07c-6.85,7.93-14.42,13-20.81,13s-14-5.09-20.82-13a60,60,0,0,1-3.6,12.06.81.81,0,0,1-.21.69.45.45,0,0,1-.13.11,65.91,65.91,0,0,1-13.34,20.09.77.77,0,0,1-.55.22.81.81,0,0,1-.42-.12C19.44,199.35,3.6,172.42.55,144.8-1.53,126,1.31,98.47,26.63,74.14a.81.81,0,0,1,1.14,0,.79.79,0,0,1,0,1.13C2.9,99.17.11,126.17,2.15,144.62c3,26.91,18.25,53.12,38.11,65.47a61,61,0,0,0,7.24-9.22Z"/><path d="M79.09,154.67A12.94,12.94,0,0,1,73,153.1a.8.8,0,1,1,.75-1.42,10.77,10.77,0,0,0,10.53,0,.81.81,0,0,1,.87,1.36,11.87,11.87,0,0,1-6,1.6Zm18.76-12.55a.8.8,0,0,1-.8-.8v-4.2a15.32,15.32,0,0,1-7.89-3.46.8.8,0,1,1,1.08-1.18,14,14,0,0,0,11.38,2.94h0l.16,0a16.46,16.46,0,0,0,3.18-.95.8.8,0,0,1,1,.25l3.2,4.13a.8.8,0,0,1-.15,1.13.79.79,0,0,1-1.12-.14L105,136.14a16.51,16.51,0,0,1-2.16.66l1,3.65a.81.81,0,0,1-.56,1l-.21,0a.8.8,0,0,1-.78-.59l-1-3.78a15.83,15.83,0,0,1-2.62.15v4.07a.8.8,0,0,1-.81.8Zm-36.91,0a.81.81,0,0,1-.81-.8v-4.07a15.89,15.89,0,0,1-2.62-.15l-1,3.78a.79.79,0,0,1-.77.59l-.22,0a.82.82,0,0,1-.56-1l1-3.65a16.51,16.51,0,0,1-2.16-.66l-2.83,3.66a.81.81,0,0,1-1.13.14.8.8,0,0,1-.14-1.13l3.2-4.13a.79.79,0,0,1,.94-.25,16.67,16.67,0,0,0,3.18.95l.16,0h0a14,14,0,0,0,11.38-2.94.8.8,0,1,1,1.09,1.18,15.37,15.37,0,0,1-7.9,3.46v4.2a.8.8,0,0,1-.8.8Zm50.85-18.55a.82.82,0,0,1-.49-.16c-9.91-7.56-20.54-2.28-20.65-2.23a.79.79,0,0,1-1.08-.35.8.8,0,0,1,.35-1.08c.11-.06,11.62-5.81,22.35,2.38a.79.79,0,0,1,.16,1.12.8.8,0,0,1-.64.32Zm-65.52,0a.81.81,0,0,1-.65-.32.8.8,0,0,1,.16-1.12c10.73-8.19,22.24-2.44,22.35-2.38a.8.8,0,0,1,.35,1.08.79.79,0,0,1-1.08.35c-.11-.05-10.74-5.33-20.65,2.23a.77.77,0,0,1-.48.16Zm23.22,44.32a19.6,19.6,0,0,1,2.26,2.59c1.88,2.42,3.82,4.92,7.28,4.92s5.39-2.5,7.27-4.92a19.6,19.6,0,0,1,2.26-2.59,12.88,12.88,0,0,1-2.74-1.73c-2-1.52-3.47-2.63-6.27-.19a.8.8,0,0,1-1,0c-2.8-2.44-4.25-1.33-6.27.19a12.4,12.4,0,0,1-2.74,1.73ZM79,177c-4.25,0-6.63-3.07-8.55-5.54a10.23,10.23,0,0,0-3-3,.92.92,0,0,1,.28-1.76,7.52,7.52,0,0,0,3.48-1.82c2-1.53,4.28-3.25,7.77-.56,3.48-2.69,5.75-1,7.77.56a7.48,7.48,0,0,0,3.48,1.82.93.93,0,0,1,.28,1.76,10.13,10.13,0,0,0-3,3C85.66,173.94,83.27,177,79,177Z"/><path d="M79,22a13.05,13.05,0,0,0-6.57,1.75l-.13.08-.08,0a13.26,13.26,0,0,0-.68,22.34l.8.51,0,0h.1s0,0,0,0h0l0,0h0l0,0h0v0h0a.41.41,0,0,1,0,.09,15.24,15.24,0,0,0,13-.37h0l.8-.5a13.25,13.25,0,0,0-.75-22.37h0l-.07,0a12.93,12.93,0,0,0-5.12-1.7A13.38,13.38,0,0,0,79,22Zm6.8,0c16.74-29.84,45-20.71,45.31-20.61a.8.8,0,0,1,.5,1,.81.81,0,0,1-1,.51c-1.12-.38-27.35-8.79-43.41,19.89a14.83,14.83,0,0,1,4.35,20.43c17.54-9.5,38-13.39,49.81-9.05,5.13,1.89,8.45,5.21,9.85,9.85,3.83,12.69-1.68,26-9,31.14A11,11,0,0,1,136,77.35a9.16,9.16,0,0,1-5.39-1.82c-1.75,5.29-4.66,8.8-8.35,10a9.33,9.33,0,0,1-2.92.46,13.47,13.47,0,0,1-8.68-3.72c-3-2.59-7.62-6.8-13.79-12.52a39.92,39.92,0,0,1,.08,8.46.86.86,0,0,1,.21.29.81.81,0,0,1-.35,1,47.32,47.32,0,0,1-6.29,18,.94.94,0,0,1-.2.33,55.53,55.53,0,0,1-9,11.39,3.2,3.2,0,0,1-4.47,0,55.81,55.81,0,0,1-9.31-11.83.8.8,0,0,1-.21-.37A46.94,46.94,0,0,1,61.18,78.9.81.81,0,0,1,61,78s0-.07,0-.1a40.92,40.92,0,0,1,.11-8.2C56.62,74,51,79.12,47.4,82.26A13.47,13.47,0,0,1,38.72,86a9.38,9.38,0,0,1-2.92-.46c-3.69-1.2-6.6-4.7-8.35-10a9.21,9.21,0,0,1-5.38,1.81,11,11,0,0,1-6.24-2.17C8.52,70.08,3,56.73,6.85,44c1.4-4.64,4.71-8,9.85-9.85,11.77-4.34,32.26-.45,49.81,9.05a14.82,14.82,0,0,1,2.6-19.09,15,15,0,0,1,1.74-1.35C54.79-5.88,28.56,2.54,27.45,2.92a.82.82,0,0,1-1-.51.8.8,0,0,1,.5-1c.29-.1,28.57-9.23,45.3,20.6a14.79,14.79,0,0,1,8.5-1.53A14.43,14.43,0,0,1,85.81,22Zm-6,77.25A44.57,44.57,0,0,1,69.74,98.1a55.75,55.75,0,0,0,8.17,10,1.59,1.59,0,0,0,2.23,0,55.82,55.82,0,0,0,7.93-9.61,43.86,43.86,0,0,1-8.26.78ZM68.55,96.14a42.69,42.69,0,0,0,20.7.43,45.61,45.61,0,0,0,6-16.43A43.3,43.3,0,0,1,79.81,83a45.82,45.82,0,0,1-17.09-3.36,45.23,45.23,0,0,0,5.83,16.52Zm-6-18.34a42.75,42.75,0,0,0,33,.52,37.47,37.47,0,0,0-.32-10.17.8.8,0,0,1-.14-.82c-.22-1.13-.49-2.27-.82-3.41a39,39,0,0,1-14.47,2.77A41.52,41.52,0,0,1,64,63.52,37.72,37.72,0,0,0,63,67.33a.82.82,0,0,1-.15.82,37.84,37.84,0,0,0-.37,9.65Zm.19-15.3a.8.8,0,0,1,.06-.37.78.78,0,0,1,.11-.18c.2-.61.42-1.23.65-1.84A78.23,78.23,0,0,0,28.81,74.53C30.38,79.59,33,82.92,36.3,84c3.12,1,6.69,0,10.05-2.94,4-3.48,10.45-9.43,15.22-13.86a40,40,0,0,1,1.14-4.69ZM64.47,62a38.37,38.37,0,0,0,29.25.4c-.3-.9-.64-1.79-1-2.69a.83.83,0,0,1-.18-.42,44.89,44.89,0,0,0-4.06-7.41.86.86,0,0,1-.64-.76.76.76,0,0,1,0-.15q-.9-1.28-1.92-2.55A16.45,16.45,0,0,1,78.85,50,17.18,17.18,0,0,1,72,48.54c-.63.8-1.24,1.6-1.81,2.41a.76.76,0,0,1,0,.15.84.84,0,0,1-.63.76,44.55,44.55,0,0,0-4.07,7.4.75.75,0,0,1-.18.43c-.32.76-.61,1.53-.87,2.29Zm30.83.39a.76.76,0,0,1,.17.55,41.31,41.31,0,0,1,1,4.27c6.89,6.41,12,11.08,15.22,13.86s6.91,4,10.05,2.94c3.3-1.07,5.91-4.4,7.48-9.46A78,78,0,0,0,94.53,60.11c.28.75.54,1.5.77,2.26Zm34.4,10.5c0-.15.07-.3.11-.46a9.63,9.63,0,0,0-2.37-8.64c-6-7.16-22-12.29-37.09-12a45.18,45.18,0,0,1,3.49,6.6c2.91.29,19.06,2.42,35.86,14.46ZM89.29,50.23c16-.61,32.89,4.72,39.39,12.51a11.18,11.18,0,0,1,2.7,10c-.09.38-.19.75-.28,1.11l.25.19c3,2.25,6.51,2.17,10-.22,6.88-4.8,11.88-17.74,8.37-29.36-1.25-4.13-4.24-7.09-8.87-8.8-12.28-4.53-35.55.66-53.39,11.81l-.09.06c.7.89,1.36,1.77,2,2.66ZM27,73.89c-.1-.36-.2-.73-.28-1.11-.83-3.53.08-6.91,2.69-10C35.88,55,52.71,49.62,68.76,50.23c.62-.89,1.27-1.77,2-2.66l-.06,0C52.83,36.37,29.54,31.17,17.25,35.7c-4.63,1.71-7.61,4.67-8.86,8.8C4.87,56.12,9.87,69.06,16.75,73.86c3.44,2.39,7,2.47,10,.22l.25-.19ZM67.71,51.81c-15.06-.32-31.12,4.8-37.1,12a9.63,9.63,0,0,0-2.37,8.64c0,.16.08.31.11.46,16.81-12.05,33-14.17,35.86-14.46a45.26,45.26,0,0,1,3.5-6.6Z"/></g></g></svg>