<?xml version="1.0" encoding="UTF-8"?>
<!DOCTYPE svg PUBLIC "-//W3C//DTD SVG 1.1//EN" "http://www.w3.org/Graphics/SVG/1.1/DTD/svg11.dtd">
<!-- Creator: CorelDRAW 2020 (64-Bit) -->
<svg xmlns="http://www.w3.org/2000/svg" xml:space="preserve" width="716px" height="942px" version="1.1" style="shape-rendering:geometricPrecision; text-rendering:geometricPrecision; image-rendering:optimizeQuality; fill-rule:evenodd; clip-rule:evenodd"
viewBox="0 0 716 941.71"
 xmlns:xlink="http://www.w3.org/1999/xlink">
 <g id="Layer_x0020_1">
   <path class="fil0" d="M226.47 866.2c-79.07,-57.66 -126.35,-137.6 -136.73,-231.25 -9.81,-88.33 14.94,-182.46 69.65,-265.04 1.02,-1.55 3.1,-1.98 4.65,-0.95 1.55,1.03 1.96,3.11 0.94,4.65 -115.62,174.5 -88.76,374.38 65.09,486.89 6.31,-10.25 12.67,-22.04 18.34,-35.2 -109.67,-104.59 -109.81,-198.91 -109.87,-234.56 -0.2,-143.5 144.14,-236.77 145.6,-237.69 1.56,-1 3.63,-0.54 4.62,1.03 1,1.56 0.54,3.64 -1.03,4.63 -1.42,0.91 -142.68,92.26 -142.48,231.64 0.05,38.29 0.19,126.49 105.92,228.3 6.17,-15.48 11.3,-32.69 14.29,-51.37 -27.51,-33.79 -51.66,-78.31 -65.03,-124.81 -30.87,-107.36 52.13,-188.56 106.04,-219.61 1.6,-0.91 3.66,-0.37 4.59,1.24 0.92,1.6 0.37,3.65 -1.24,4.58 -52.22,30.07 -132.67,108.56 -102.94,211.94 13.19,45.89 36.89,89.79 63.71,122.85 0.77,0.41 1.34,1.11 1.6,1.93 28.1,34.03 59.43,56.08 85.61,56.08 26.18,0 57.52,-22.04 85.62,-56.07 0.26,-0.82 0.83,-1.52 1.6,-1.94 26.82,-33.06 50.53,-76.96 63.72,-122.85 29.72,-103.38 -50.72,-181.87 -102.94,-211.94 -1.61,-0.93 -2.17,-2.98 -1.24,-4.58 0.93,-1.61 2.98,-2.15 4.58,-1.24 53.91,31.05 136.91,112.25 106.04,219.61 -13.37,46.5 -37.52,91.01 -65.02,124.8 2.98,18.68 8.11,35.9 14.28,51.38 105.74,-101.82 105.87,-190.01 105.92,-227.93 0.2,-139.84 -141.06,-231.1 -142.47,-232.01 -1.57,-0.99 -2.04,-3.06 -1.04,-4.63 0.99,-1.56 3.06,-2.03 4.62,-1.03 1.46,0.92 145.8,94.19 145.6,237.32 -0.05,36 -0.2,130.34 -109.87,234.93 5.67,13.16 12.03,24.95 18.34,35.21 153.85,-112.52 180.7,-312.4 65.09,-486.9 -1.02,-1.54 -0.59,-3.62 0.94,-4.65 1.55,-1.03 3.63,-0.6 4.65,0.95 54.71,82.58 79.46,176.71 69.65,265.04 -10.39,93.65 -57.65,173.58 -136.73,231.25 13.24,20.41 25.61,33.77 30.13,38.39 81.74,-50.86 144.83,-160.3 157.3,-273.34 8.67,-78.39 -2.91,-192.88 -107.25,-293.11 -1.35,-1.28 -1.39,-3.4 -0.11,-4.74 1.29,-1.33 3.4,-1.38 4.74,-0.09 106.33,102.12 118.12,218.78 109.29,298.66 -12.81,116.05 -78.21,228.46 -162.73,279.73 -0.53,0.33 -1.14,0.49 -1.73,0.49 -0.84,0 -1.67,-0.31 -2.3,-0.91 -0.44,-0.42 -33.24,-31.74 -55.56,-83.67 -0.19,-0.13 -0.37,-0.29 -0.54,-0.47 -0.76,-0.8 -1.05,-1.87 -0.87,-2.87 -6.28,-15.16 -11.61,-31.99 -15,-50.27 -28.55,33.02 -60.09,54.2 -86.71,54.2 -26.61,0 -58.15,-21.18 -86.7,-54.19 -3.39,18.27 -8.72,35.11 -15,50.26 0.17,1.01 -0.11,2.08 -0.87,2.87 -0.16,0.18 -0.34,0.34 -0.54,0.47 -22.32,51.93 -55.12,83.25 -55.56,83.67 -0.64,0.6 -1.46,0.91 -2.3,0.91 -0.59,0 -1.2,-0.16 -1.73,-0.49 -85.5,-51.85 -151.47,-164 -164.18,-279.06 -8.65,-78.34 3.17,-192.98 108.65,-294.29 1.34,-1.29 3.46,-1.24 4.75,0.09 1.28,1.34 1.24,3.46 -0.1,4.74 -103.51,99.43 -115.12,211.89 -106.63,288.72 12.38,112.09 76.04,221.28 158.75,272.69 4.52,-4.62 16.89,-17.98 30.13,-38.39z"/>
   <path class="fil0" d="M358.07 673.77c-7.47,0 -16.16,-1.64 -25.44,-6.53 -1.64,-0.87 -2.27,-2.89 -1.41,-4.53 0.86,-1.64 2.88,-2.27 4.52,-1.4 23.93,12.57 43.07,0.65 43.87,0.14 1.57,-1 3.63,-0.54 4.64,1.01 1,1.55 0.56,3.63 -1.01,4.63 -0.6,0.4 -10.55,6.68 -25.17,6.68zm78.16 -52.28c-1.85,0 -3.35,-1.51 -3.35,-3.35l0 -17.47c-19.8,-2.65 -32.11,-13.71 -32.88,-14.41 -1.36,-1.25 -1.45,-3.36 -0.21,-4.72 1.26,-1.37 3.37,-1.46 4.74,-0.21 0.89,0.81 19.35,17.21 47.41,12.24l0.1 -0.03c0.22,-0.06 0.45,-0.09 0.67,-0.11 4.22,-0.8 8.65,-2.08 13.26,-3.98 1.41,-0.57 3.02,-0.14 3.93,1.05l13.33 17.22c1.14,1.46 0.87,3.57 -0.6,4.69 -0.61,0.47 -1.33,0.71 -2.04,0.71 -1,0 -1.99,-0.44 -2.66,-1.3l-11.79 -15.24c-3.09,1.16 -6.09,2.07 -9.01,2.77l4.21 15.2c0.49,1.79 -0.56,3.63 -2.35,4.13 -0.29,0.08 -0.6,0.12 -0.88,0.12 -1.48,0 -2.82,-0.97 -3.24,-2.46l-4.36 -15.74c-3.82,0.53 -7.47,0.71 -10.93,0.61l0 16.93c0,1.84 -1.49,3.35 -3.35,3.35zm-153.76 0c-1.85,0 -3.35,-1.51 -3.35,-3.35l0 -16.94c-3.47,0.1 -7.12,-0.07 -10.93,-0.6l-4.36 15.74c-0.41,1.49 -1.76,2.46 -3.23,2.46 -0.3,0 -0.59,-0.04 -0.9,-0.12 -1.78,-0.5 -2.83,-2.34 -2.33,-4.13l4.21 -15.21c-2.93,-0.69 -5.93,-1.6 -9.02,-2.76l-11.78 15.24c-0.66,0.86 -1.66,1.3 -2.66,1.3 -0.72,0 -1.44,-0.24 -2.05,-0.71 -1.46,-1.12 -1.73,-3.23 -0.6,-4.69l13.33 -17.22c0.93,-1.19 2.54,-1.62 3.93,-1.05 4.61,1.9 9.03,3.18 13.25,3.98 0.22,0.02 0.45,0.05 0.68,0.11l0.11 0.04c28.03,4.96 46.51,-11.44 47.39,-12.25 1.38,-1.25 3.49,-1.15 4.74,0.21 1.25,1.36 1.16,3.47 -0.2,4.72 -0.76,0.71 -13.08,11.76 -32.88,14.4l0 17.48c0,1.84 -1.5,3.35 -3.35,3.35zm211.79 -77.26c-0.71,0 -1.42,-0.22 -2.02,-0.69 -41.28,-31.48 -85.55,-9.48 -86,-9.26 -1.65,0.84 -3.67,0.2 -4.51,-1.46 -0.85,-1.65 -0.2,-3.66 1.44,-4.51 0.49,-0.24 48.43,-24.19 93.13,9.9 1.47,1.12 1.75,3.22 0.63,4.7 -0.66,0.87 -1.65,1.32 -2.67,1.32zm-272.91 0c-1.01,0 -2.01,-0.45 -2.67,-1.32 -1.12,-1.48 -0.84,-3.58 0.63,-4.7 44.72,-34.09 92.64,-10.14 93.12,-9.9 1.65,0.85 2.29,2.86 1.45,4.51 -0.85,1.66 -2.86,2.3 -4.51,1.46 -0.44,-0.23 -44.71,-22.22 -85.99,9.26 -0.61,0.47 -1.32,0.69 -2.03,0.69zm96.74 184.59c3.29,2.92 6.29,6.79 9.4,10.8 7.83,10.09 15.92,20.51 30.31,20.51 14.4,0 22.49,-10.42 30.31,-20.51 3.12,-4.01 6.12,-7.88 9.41,-10.79 -4.31,-1.8 -8.02,-4.61 -11.41,-7.19 -8.39,-6.36 -14.46,-10.97 -26.1,-0.82 -1.26,1.09 -3.15,1.09 -4.41,0 -11.65,-10.15 -17.71,-5.54 -26.1,0.82 -3.39,2.58 -7.1,5.39 -11.41,7.18zm39.71 38.01c-17.67,0 -27.61,-12.8 -35.6,-23.09 -4.24,-5.46 -8.24,-10.63 -12.41,-12.55 -1.6,-0.73 -2.47,-2.39 -2.2,-4.11 0.28,-1.72 1.63,-3 3.36,-3.22 5.37,-0.64 9.81,-4 14.5,-7.56 8.39,-6.37 17.84,-13.55 32.35,-2.35 14.52,-11.2 23.97,-4.02 32.37,2.35 4.69,3.56 9.12,6.92 14.49,7.56 1.73,0.22 3.08,1.5 3.36,3.22 0.27,1.71 -0.6,3.36 -2.17,4.11 -4.2,1.92 -8.2,7.09 -12.44,12.55 -7.98,10.29 -17.93,23.09 -35.61,23.09z"/>
   <path class="fil0" d="M357.73 121.03c-9.74,0 -19.08,2.49 -27.37,7.27 -0.16,0.12 -0.33,0.24 -0.51,0.34 -0.12,0.06 -0.23,0.11 -0.35,0.16 -3,1.8 -5.85,3.9 -8.53,6.3 -11.71,10.48 -18.43,25.49 -18.43,41.2 0,18.21 9.16,35.34 24.14,45.59 1.1,0.69 2.21,1.39 3.31,2.09 0.04,0.03 0.09,0.06 0.14,0.09l0 0.01 0.07 0.04 0.01 0.01 0.03 0.03 0.03 0.01 0.01 0.01 0.04 0.03 0.01 0.02 0.02 0.01 0.04 0.03 0.01 0.01 0.02 0.02 0.03 0.03 0.01 0.01 0.03 0.02 0.03 0.03 0.01 0 0.03 0.03c0.05,0.05 0.1,0.1 0.15,0.16l0.03 0.03 0.09 0.11 0.03 0.03 0.08 0.11 0.02 0.03 0.01 0 0.02 0.04 0.02 0.02 0.01 0.02 0.03 0.04 0 0.01 0.02 0.02 0.02 0.04 0.01 0.01 0.04 0.07 0 0c0.07,0.12 0.14,0.25 0.19,0.38 29.85,12.8 54.06,-1.42 54.3,-1.56l0.02 -0.01c1.1,-0.7 2.2,-1.4 3.31,-2.1 16.92,-11.58 26.15,-31.71 23.71,-52.33 -2.06,-17.29 -12.37,-32.28 -26.8,-40.85l-0.1 -0.05c-0.1,-0.05 -0.19,-0.11 -0.28,-0.17 -6.42,-3.75 -13.65,-6.23 -21.32,-7.08 -2.17,-0.25 -4.31,-0.36 -6.44,-0.36zm28.34 0.12c69.7,-124.28 187.54,-86.24 188.72,-85.84 1.75,0.59 2.69,2.49 2.1,4.25 -0.59,1.75 -2.51,2.68 -4.24,2.1 -4.66,-1.57 -113.92,-36.61 -180.8,82.89 14.83,9.81 25.3,25.85 27.47,44.2 1.74,14.61 -1.76,28.99 -9.36,40.88 73.07,-39.57 158.43,-55.78 207.47,-37.7 21.38,7.88 35.2,21.68 41.04,41.02 15.98,52.85 -6.98,108.47 -37.42,129.7 -8.64,6.03 -17.45,9.04 -25.99,9.04 -7.81,0 -15.39,-2.51 -22.42,-7.55 -7.3,22.02 -19.42,36.62 -34.78,41.6 -3.96,1.28 -8.02,1.91 -12.16,1.91 -11.94,0 -24.43,-5.28 -36.16,-15.48 -12.44,-10.8 -31.75,-28.33 -57.43,-52.19 1.37,11.88 1.43,23.68 0.33,35.28 0.36,0.32 0.66,0.73 0.86,1.2 0.68,1.59 0.03,3.41 -1.45,4.23 -3.34,26.55 -12.69,52 -26.21,75.01 -0.16,0.52 -0.44,0.99 -0.82,1.38 -10.43,17.45 -23.27,33.47 -37.71,47.47 -2.62,2.51 -5.95,3.78 -9.31,3.78 -3.34,0 -6.69,-1.26 -9.3,-3.78 -14.94,-14.48 -28.16,-31.12 -38.77,-49.27 -0.43,-0.42 -0.74,-0.96 -0.9,-1.55 -13.33,-23.23 -22.39,-48.87 -25.36,-75.58 -0.87,-0.94 -1.16,-2.35 -0.61,-3.61 0.06,-0.14 0.13,-0.28 0.21,-0.41 -0.98,-11.24 -0.89,-22.66 0.44,-34.15 -19.02,17.65 -42.34,39.08 -57.43,52.19 -11.74,10.2 -24.23,15.48 -36.17,15.48 -4.13,0 -8.2,-0.63 -12.15,-1.91 -15.37,-4.99 -27.49,-19.58 -34.8,-41.6 -7.03,5.04 -14.61,7.55 -22.41,7.55 -8.54,0 -17.35,-3.01 -25.98,-9.04 -30.44,-21.23 -53.4,-76.85 -37.42,-129.7 5.84,-19.34 19.65,-33.14 41.04,-41.02 49.02,-18.08 134.38,-1.86 207.47,37.71 -6.3,-9.83 -9.82,-21.38 -9.82,-33.34 0,-17.61 7.53,-34.45 20.66,-46.2 2.3,-2.06 4.72,-3.92 7.23,-5.59 -66.88,-119.47 -176.12,-84.42 -180.76,-82.85 -1.74,0.58 -3.66,-0.35 -4.25,-2.1 -0.59,-1.76 0.35,-3.66 2.1,-4.25 1.19,-0.4 119.01,-38.44 188.7,85.8 10.73,-5.54 22.89,-7.79 35.39,-6.39 7.52,0.84 14.67,3.07 21.16,6.43zm-25 321.77c-14.02,0 -28.1,-1.6 -41.93,-4.78 9.9,15.49 21.57,29.51 34.03,41.58 2.6,2.52 6.67,2.52 9.27,0 12.05,-11.68 23.36,-25.18 33.05,-40.07 -11.31,2.18 -22.84,3.27 -34.42,3.27zm-46.89 -12.93c28.37,7.64 58.13,8.25 86.21,1.77 12.29,-20.75 21.35,-43.91 25.01,-68.45 -20.7,7.9 -42.42,11.85 -64.33,11.85 -23.85,0 -47.92,-4.67 -71.17,-13.99 3.35,24.63 12.16,47.92 24.28,68.82zm-25.13 -76.43c45.15,19.08 93.72,19.83 137.31,2.17 1.41,-13.79 1.09,-27.96 -1.34,-42.36 -0.84,-0.95 -1.05,-2.27 -0.61,-3.41 -0.91,-4.71 -2.03,-9.44 -3.4,-14.19 -19.34,7.7 -39.7,11.55 -60.25,11.55 -22.01,0 -44.23,-4.42 -65.66,-13.23 -1.59,5.31 -2.89,10.61 -3.89,15.87 0.43,1.14 0.22,2.47 -0.62,3.42 -2.3,13.63 -2.71,27.08 -1.54,40.18zm0.79 -63.72c-0.03,-0.51 0.06,-1.03 0.27,-1.53 0.12,-0.28 0.28,-0.53 0.45,-0.75 0.83,-2.56 1.72,-5.12 2.69,-7.67 -18.02,2.28 -80.26,13.23 -144.6,60.05 6.54,21.1 17.43,34.96 31.18,39.42 13.02,4.22 27.89,-0.13 41.85,-12.26 16.69,-14.49 43.54,-39.26 63.4,-57.73 1.18,-6.5 2.76,-13.02 4.76,-19.53zm7.33 -2.15c40.1,16.64 83.13,17.22 121.84,1.66 -1.25,-3.73 -2.64,-7.47 -4.2,-11.21 -0.41,-0.49 -0.68,-1.1 -0.76,-1.77 -4.41,-10.27 -10,-20.58 -16.93,-30.85 -1.34,-0.31 -2.57,-1.61 -2.64,-3.14 -0.01,-0.22 0,-0.44 0.03,-0.65 -2.51,-3.55 -5.17,-7.09 -8,-10.62 -4.71,2.29 -15.36,6.58 -29.42,6.58 -8.44,0 -18.11,-1.55 -28.45,-6 -2.66,3.34 -5.17,6.69 -7.54,10.05 0.03,0.21 0.04,0.42 0.03,0.64 -0.08,1.54 -1.26,2.85 -2.65,3.15 -6.92,10.27 -12.51,20.57 -16.92,30.84 -0.07,0.66 -0.34,1.28 -0.76,1.77 -1.32,3.19 -2.53,6.37 -3.63,9.55zm128.43 1.6c0.18,0.22 0.32,0.47 0.44,0.75 0.21,0.5 0.3,1.03 0.26,1.54 1.76,5.94 3.16,11.87 4.23,17.79 28.73,26.72 50.05,46.14 63.41,57.73 13.95,12.13 28.8,16.48 41.85,12.26 13.75,-4.46 24.64,-18.32 31.17,-39.42 -64.4,-46.88 -126.58,-57.79 -144.59,-60.06 1.18,3.14 2.25,6.27 3.23,9.41zm143.27 43.75c0.16,-0.63 0.31,-1.26 0.46,-1.9 2.92,-12.54 -0.4,-24.65 -9.86,-36 -24.9,-29.84 -91.78,-51.18 -154.51,-49.81 5.8,9.09 10.63,18.27 14.56,27.49 12.11,1.22 79.36,10.06 149.35,60.22zm-168.29 -94.29c66.85,-2.56 136.96,19.63 164.04,52.09 10.88,13.05 14.66,27.12 11.24,41.82 -0.37,1.58 -0.76,3.13 -1.17,4.65 0.35,0.26 0.7,0.51 1.05,0.78 12.43,9.38 27.15,9.05 41.47,-0.94 28.64,-19.97 49.47,-73.87 34.84,-122.27 -5.21,-17.21 -17.64,-29.54 -36.94,-36.66 -51.13,-18.86 -148.08,2.74 -222.38,49.2l-0.38 0.26c2.91,3.67 5.65,7.36 8.23,11.07zm-259.66 98.56c-0.41,-1.52 -0.8,-3.07 -1.17,-4.65 -3.43,-14.7 0.36,-28.77 11.24,-41.82 27.08,-32.45 97.2,-54.64 164.05,-52.09 2.57,-3.71 5.31,-7.4 8.22,-11.07l-0.27 -0.19c-74.31,-46.5 -171.31,-68.13 -222.48,-49.27 -19.31,7.12 -31.74,19.45 -36.94,36.66 -14.64,48.4 6.19,102.3 34.83,122.27 14.32,9.99 29.05,10.32 41.47,0.94 0.35,-0.26 0.7,-0.52 1.05,-0.78zm169.74 -91.98c-62.74,-1.36 -129.62,19.96 -154.52,49.81 -9.47,11.35 -12.78,23.46 -9.86,36 0.15,0.64 0.3,1.27 0.46,1.9 70.02,-50.18 137.29,-59.01 149.36,-60.22 3.93,-9.22 8.76,-18.4 14.56,-27.49z"/>
 </g>
</svg>
