<?xml version="1.0" encoding="UTF-8"?>
<!DOCTYPE svg PUBLIC "-//W3C//DTD SVG 1.1//EN" "http://www.w3.org/Graphics/SVG/1.1/DTD/svg11.dtd">
<!-- Creator: CorelDRAW 2020 (64-Bit) -->
<svg xmlns="http://www.w3.org/2000/svg" xml:space="preserve" width="460px" height="600px" version="1.1" style="shape-rendering:geometricPrecision; text-rendering:geometricPrecision; image-rendering:optimizeQuality; fill-rule:evenodd; clip-rule:evenodd"
viewBox="0 0 459.7 599.79"
 xmlns:xlink="http://www.w3.org/1999/xlink"
 xmlns:xodm="http://www.corel.com/coreldraw/odm/2003">
 <defs>
  <style type="text/css">
   <![CDATA[
    .fil0 {fill:none}
    .fil1 {fill:#201E1E;fill-rule:nonzero}
   ]]>
  </style>
 </defs>
 <g id="Layer_x0020_1">
  <metadata id="CorelCorpID_0Corel-Layer"/>
  <rect class="fil0" width="459.7" height="599.79"/>
  <path class="fil1" d="M148.3 541.26c-49.08,-35.79 -78.42,-85.4 -84.87,-143.53 -6.08,-54.82 9.27,-113.25 43.24,-164.5 0.63,-0.96 1.92,-1.23 2.88,-0.59 0.96,0.64 1.22,1.93 0.58,2.89 -71.76,108.3 -55.09,232.36 40.4,302.2 3.92,-6.37 7.86,-13.69 11.38,-21.86 -68.06,-64.91 -68.15,-123.45 -68.19,-145.58 -0.12,-89.06 89.46,-146.95 90.37,-147.52 0.97,-0.62 2.25,-0.34 2.87,0.63 0.62,0.98 0.33,2.26 -0.64,2.88 -0.89,0.56 -88.56,57.26 -88.43,143.77 0.03,23.76 0.11,78.51 65.74,141.7 3.83,-9.61 7.01,-20.29 8.86,-31.89 -17.07,-20.97 -32.06,-48.6 -40.35,-77.46 -19.17,-66.64 32.35,-117.03 65.81,-136.3 0.99,-0.57 2.27,-0.23 2.85,0.76 0.57,1 0.23,2.27 -0.77,2.85 -32.41,18.66 -82.35,67.37 -63.89,131.54 8.18,28.48 22.9,55.73 39.54,76.25 0.48,0.26 0.83,0.69 0.99,1.2 17.44,21.12 36.89,34.81 53.14,34.81 16.25,0 35.7,-13.69 53.14,-34.81 0.16,-0.51 0.52,-0.94 0.99,-1.2 16.65,-20.52 31.36,-47.77 39.55,-76.25 18.45,-64.17 -31.48,-112.88 -63.89,-131.54 -1,-0.58 -1.35,-1.85 -0.77,-2.85 0.58,-0.99 1.85,-1.33 2.84,-0.76 33.46,19.27 84.98,69.66 65.82,136.3 -8.3,28.86 -23.29,56.49 -40.36,77.46 1.86,11.59 5.04,22.28 8.87,31.89 65.62,-63.2 65.7,-117.93 65.74,-141.47 0.12,-86.79 -87.55,-143.44 -88.43,-144 -0.97,-0.62 -1.27,-1.9 -0.64,-2.88 0.61,-0.96 1.89,-1.26 2.86,-0.63 0.91,0.57 90.5,58.46 90.37,147.29 -0.03,22.35 -0.12,80.9 -68.19,145.81 3.52,8.17 7.47,15.49 11.38,21.86 95.49,-69.84 112.16,-193.9 40.4,-302.2 -0.63,-0.96 -0.37,-2.25 0.59,-2.89 0.96,-0.64 2.25,-0.37 2.88,0.59 33.96,51.25 49.32,109.68 43.23,164.5 -6.45,58.13 -35.78,107.74 -84.87,143.53 8.22,12.67 15.9,20.96 18.71,23.83 50.73,-31.57 89.89,-99.5 97.63,-169.66 5.38,-48.65 -1.81,-119.71 -66.57,-181.92 -0.83,-0.79 -0.86,-2.11 -0.06,-2.94 0.79,-0.83 2.1,-0.86 2.94,-0.06 65.99,63.39 73.31,135.79 67.83,185.37 -7.95,72.03 -48.55,141.8 -101,173.62 -0.33,0.2 -0.71,0.3 -1.07,0.3 -0.53,0 -1.04,-0.19 -1.44,-0.56 -0.27,-0.26 -20.62,-19.7 -34.48,-51.93 -0.12,-0.08 -0.23,-0.18 -0.33,-0.29 -0.48,-0.5 -0.65,-1.16 -0.54,-1.79 -3.9,-9.4 -7.21,-19.85 -9.31,-31.19 -17.72,20.49 -37.3,33.64 -53.82,33.64 -16.52,0 -36.09,-13.15 -53.81,-33.64 -2.1,11.34 -5.42,21.79 -9.31,31.2 0.1,0.62 -0.07,1.28 -0.54,1.78 -0.1,0.11 -0.22,0.21 -0.34,0.29 -13.85,32.23 -34.21,51.67 -34.48,51.93 -0.4,0.37 -0.91,0.56 -1.43,0.56 -0.37,0 -0.74,-0.1 -1.08,-0.3 -53.06,-32.18 -94.01,-101.79 -101.9,-173.21 -5.36,-48.61 1.98,-119.77 67.44,-182.65 0.83,-0.8 2.15,-0.77 2.95,0.06 0.79,0.83 0.77,2.15 -0.06,2.94 -64.25,61.71 -71.46,131.51 -66.19,179.2 7.69,69.57 47.2,137.34 98.54,169.25 2.8,-2.87 10.48,-11.16 18.7,-23.83z"/>
  <path class="fil1" d="M229.98 421.82c-4.64,0 -10.03,-1.01 -15.8,-4.05 -1.01,-0.54 -1.4,-1.79 -0.87,-2.81 0.53,-1.02 1.79,-1.41 2.81,-0.87 14.85,7.81 26.73,0.4 27.22,0.09 0.98,-0.62 2.26,-0.34 2.88,0.62 0.63,0.97 0.35,2.26 -0.62,2.88 -0.38,0.25 -6.55,4.14 -15.62,4.14zm48.51 -32.44c-1.15,0 -2.08,-0.94 -2.08,-2.08l0 -10.85c-12.29,-1.64 -19.93,-8.5 -20.41,-8.94 -0.84,-0.77 -0.9,-2.08 -0.13,-2.93 0.78,-0.85 2.09,-0.9 2.94,-0.13 0.56,0.5 12.01,10.68 29.43,7.6l0.06 -0.02c0.14,-0.04 0.28,-0.06 0.41,-0.07 2.62,-0.49 5.37,-1.29 8.24,-2.47 0.87,-0.35 1.87,-0.09 2.44,0.65l8.27 10.69c0.71,0.91 0.54,2.22 -0.38,2.91 -0.37,0.3 -0.82,0.44 -1.26,0.44 -0.62,0 -1.24,-0.27 -1.65,-0.8l-7.32 -9.46c-1.91,0.72 -3.78,1.28 -5.59,1.71l2.61 9.44c0.3,1.11 -0.35,2.25 -1.46,2.57 -0.18,0.04 -0.37,0.07 -0.54,0.07 -0.92,0 -1.75,-0.61 -2.01,-1.53l-2.71 -9.77c-2.37,0.33 -4.63,0.44 -6.78,0.38l0 10.51c0,1.14 -0.93,2.08 -2.08,2.08zm-95.44 0c-1.14,0 -2.08,-0.94 -2.08,-2.08l0 -10.51c-2.15,0.06 -4.41,-0.05 -6.78,-0.38l-2.7 9.77c-0.26,0.92 -1.1,1.53 -2.01,1.53 -0.18,0 -0.37,-0.03 -0.56,-0.07 -1.1,-0.32 -1.75,-1.46 -1.45,-2.57l2.62 -9.44c-1.82,-0.43 -3.68,-0.99 -5.6,-1.71l-7.31 9.46c-0.41,0.53 -1.03,0.8 -1.65,0.8 -0.45,0 -0.9,-0.14 -1.27,-0.44 -0.91,-0.69 -1.08,-2 -0.37,-2.91l8.27 -10.69c0.57,-0.74 1.57,-1 2.43,-0.65 2.87,1.18 5.61,1.97 8.23,2.47 0.14,0.01 0.28,0.03 0.42,0.07l0.07 0.02c17.4,3.08 28.86,-7.1 29.42,-7.6 0.85,-0.77 2.16,-0.71 2.94,0.13 0.77,0.85 0.72,2.16 -0.13,2.93 -0.47,0.44 -8.12,7.3 -20.4,8.94l0 10.85c0,1.14 -0.94,2.08 -2.09,2.08zm131.45 -47.95c-0.43,0 -0.87,-0.14 -1.25,-0.43 -25.62,-19.54 -53.1,-5.89 -53.37,-5.75 -1.03,0.52 -2.29,0.12 -2.81,-0.91 -0.52,-1.02 -0.12,-2.27 0.9,-2.8 0.3,-0.15 30.05,-15.01 57.8,6.15 0.92,0.7 1.09,2 0.39,2.91 -0.41,0.54 -1.02,0.83 -1.66,0.83zm-169.38 0c-0.63,0 -1.25,-0.29 -1.66,-0.83 -0.69,-0.91 -0.52,-2.21 0.39,-2.91 27.76,-21.16 57.5,-6.3 57.8,-6.15 1.02,0.53 1.42,1.78 0.9,2.8 -0.53,1.03 -1.78,1.43 -2.8,0.91 -0.27,-0.15 -27.75,-13.79 -53.37,5.75 -0.38,0.29 -0.82,0.43 -1.26,0.43zm60.04 114.56c2.05,1.82 3.91,4.22 5.84,6.71 4.86,6.26 9.88,12.73 18.81,12.73 8.94,0 13.96,-6.47 18.81,-12.73 1.94,-2.49 3.8,-4.89 5.84,-6.7 -2.68,-1.12 -4.98,-2.86 -7.08,-4.46 -5.21,-3.95 -8.97,-6.81 -16.2,-0.51 -0.78,0.67 -1.95,0.67 -2.73,0 -7.24,-6.3 -11,-3.44 -16.2,0.51 -2.11,1.6 -4.41,3.34 -7.09,4.45zm24.65 23.6c-10.97,0 -17.14,-7.95 -22.1,-14.34 -2.63,-3.38 -5.11,-6.59 -7.7,-7.78 -0.99,-0.46 -1.53,-1.49 -1.36,-2.56 0.17,-1.06 1.01,-1.86 2.08,-2 3.34,-0.39 6.09,-2.48 9,-4.69 5.21,-3.95 11.08,-8.41 20.08,-1.46 9.01,-6.95 14.87,-2.49 20.09,1.46 2.91,2.21 5.66,4.3 9,4.69 1.07,0.14 1.9,0.94 2.08,2 0.17,1.06 -0.37,2.09 -1.35,2.56 -2.6,1.19 -5.09,4.4 -7.72,7.78 -4.95,6.39 -11.13,14.34 -22.1,14.34z"/>
  <path class="fil1" d="M229.76 78.76c-6.04,0 -11.84,1.54 -16.99,4.51 -0.09,0.08 -0.2,0.15 -0.31,0.21 -0.07,0.04 -0.14,0.07 -0.22,0.1 -1.86,1.12 -3.63,2.43 -5.29,3.91 -7.27,6.5 -11.44,15.82 -11.44,25.57 0,11.3 5.69,21.94 14.98,28.3 0.69,0.43 1.37,0.86 2.05,1.3 0.04,0.02 0.06,0.04 0.09,0.06l0.01 0 0.04 0.03 0 0 0.02 0.02 0.02 0.01 0.01 0 0.02 0.02 0.01 0.01 0.01 0.01 0.02 0.02 0.01 0 0.02 0.01 0.02 0.02 0 0.01 0.02 0.01 0.02 0.02 0 0 0.02 0.02c0.03,0.03 0.07,0.07 0.1,0.1l0.02 0.02 0.05 0.06 0.02 0.03 0.05 0.06 0.01 0.02 0.01 0 0.01 0.03 0.01 0.01 0.01 0.01 0.01 0.02 0.01 0.01 0.01 0.02 0.01 0.02 0.01 0.01 0.02 0.04 0 0c0.05,0.08 0.09,0.15 0.12,0.24 18.52,7.94 33.55,-0.88 33.7,-0.97l0.01 -0.01c0.68,-0.44 1.37,-0.87 2.06,-1.3 10.5,-7.19 16.23,-19.68 14.71,-32.48 -1.27,-10.73 -7.67,-20.04 -16.63,-25.36l-0.06 -0.03c-0.06,-0.03 -0.12,-0.06 -0.17,-0.1 -3.99,-2.33 -8.48,-3.87 -13.24,-4.4 -1.35,-0.15 -2.67,-0.22 -4,-0.22zm17.6 0.07c43.26,-77.13 116.39,-53.52 117.13,-53.28 1.08,0.37 1.67,1.55 1.3,2.64 -0.37,1.09 -1.56,1.67 -2.63,1.31 -2.89,-0.97 -70.71,-22.73 -112.22,51.44 9.21,6.1 15.71,16.05 17.05,27.44 1.08,9.06 -1.09,17.99 -5.8,25.37 45.34,-24.56 98.32,-34.62 128.76,-23.4 13.27,4.89 21.85,13.46 25.47,25.46 9.92,32.8 -4.33,67.33 -23.22,80.5 -5.36,3.74 -10.83,5.61 -16.13,5.61 -4.85,0 -9.55,-1.56 -13.92,-4.68 -4.53,13.66 -12.05,22.72 -21.59,25.82 -2.45,0.79 -4.97,1.18 -7.54,1.18 -7.41,0 -15.16,-3.28 -22.45,-9.61 -7.72,-6.7 -19.7,-17.58 -35.64,-32.39 0.85,7.38 0.89,14.7 0.21,21.9 0.22,0.2 0.41,0.45 0.53,0.74 0.42,0.99 0.02,2.12 -0.9,2.63 -2.08,16.48 -7.87,32.27 -16.27,46.55 -0.1,0.33 -0.27,0.62 -0.51,0.86 -6.47,10.83 -14.44,20.77 -23.41,29.46 -1.62,1.56 -3.69,2.35 -5.77,2.35 -2.07,0 -4.15,-0.78 -5.77,-2.35 -9.27,-8.99 -17.48,-19.31 -24.07,-30.58 -0.26,-0.26 -0.46,-0.59 -0.55,-0.96 -8.28,-14.41 -13.9,-30.33 -15.74,-46.91 -0.55,-0.58 -0.72,-1.46 -0.39,-2.24 0.04,-0.09 0.09,-0.17 0.14,-0.26 -0.61,-6.97 -0.55,-14.06 0.27,-21.19 -11.81,10.96 -26.28,24.26 -35.65,32.39 -7.28,6.33 -15.03,9.61 -22.45,9.61 -2.56,0 -5.09,-0.39 -7.54,-1.19 -9.54,-3.09 -17.06,-12.15 -21.59,-25.81 -4.37,3.12 -9.07,4.68 -13.91,4.68 -5.3,0 -10.77,-1.87 -16.13,-5.61 -18.89,-13.17 -33.14,-47.7 -23.22,-80.5 3.62,-12 12.19,-20.57 25.47,-25.46 30.42,-11.22 83.41,-1.15 128.77,23.4 -3.91,-6.09 -6.1,-13.26 -6.1,-20.69 0,-10.93 4.67,-21.38 12.82,-28.67 1.43,-1.28 2.93,-2.44 4.5,-3.47 -41.52,-74.15 -109.32,-52.39 -112.2,-51.42 -1.08,0.36 -2.27,-0.22 -2.64,-1.31 -0.36,-1.09 0.22,-2.27 1.31,-2.64 0.74,-0.24 73.86,-23.85 117.12,53.26 6.66,-3.44 14.2,-4.84 21.96,-3.97 4.67,0.52 9.1,1.91 13.14,3.99zm-15.52 199.71c-8.7,0 -17.44,-0.99 -26.02,-2.96 6.14,9.61 13.38,18.31 21.11,25.81 1.62,1.56 4.15,1.56 5.76,0 7.48,-7.25 14.5,-15.63 20.51,-24.87 -7.02,1.35 -14.17,2.02 -21.36,2.02zm-29.11 -8.02c17.61,4.74 36.09,5.12 53.51,1.1 7.63,-12.88 13.25,-27.26 15.53,-42.48 -12.85,4.9 -26.33,7.35 -39.93,7.35 -14.8,0 -29.75,-2.9 -44.18,-8.69 2.08,15.29 7.56,29.75 15.07,42.72zm-15.59 -47.44c28.02,11.84 58.17,12.31 85.22,1.35 0.88,-8.56 0.68,-17.36 -0.83,-26.29 -0.52,-0.59 -0.65,-1.41 -0.38,-2.12 -0.56,-2.92 -1.26,-5.86 -2.11,-8.81 -12,4.79 -24.64,7.17 -37.4,7.17 -13.65,0 -27.45,-2.74 -40.75,-8.21 -0.99,3.3 -1.79,6.58 -2.41,9.85 0.27,0.71 0.14,1.53 -0.39,2.12 -1.42,8.47 -1.68,16.81 -0.95,24.94zm0.49 -39.54c-0.02,-0.32 0.03,-0.65 0.17,-0.96 0.07,-0.17 0.17,-0.32 0.28,-0.46 0.51,-1.59 1.07,-3.18 1.66,-4.76 -11.18,1.41 -49.81,8.21 -89.74,37.27 4.05,13.09 10.82,21.7 19.35,24.46 8.08,2.63 17.31,-0.07 25.97,-7.6 10.36,-9 27.03,-24.37 39.36,-35.84 0.73,-4.03 1.71,-8.07 2.95,-12.11zm4.55 -1.34c24.89,10.33 51.59,10.68 75.62,1.03 -0.78,-2.32 -1.64,-4.64 -2.61,-6.96 -0.25,-0.3 -0.42,-0.68 -0.47,-1.09 -2.73,-6.38 -6.21,-12.78 -10.5,-19.16 -0.84,-0.19 -1.6,-0.99 -1.65,-1.94 0,-0.14 0,-0.27 0.02,-0.41 -1.55,-2.2 -3.21,-4.4 -4.96,-6.59 -2.92,1.43 -9.54,4.08 -18.26,4.08 -5.24,0 -11.24,-0.96 -17.66,-3.72 -1.65,2.08 -3.21,4.16 -4.68,6.24 0.02,0.13 0.02,0.26 0.02,0.4 -0.05,0.95 -0.79,1.77 -1.64,1.95 -4.3,6.37 -7.77,12.77 -10.51,19.14 -0.04,0.42 -0.21,0.8 -0.47,1.1 -0.82,1.98 -1.57,3.96 -2.25,5.93zm79.71 0.99c0.11,0.14 0.2,0.3 0.27,0.47 0.14,0.31 0.19,0.64 0.16,0.95 1.09,3.69 1.97,7.37 2.63,11.05 17.83,16.58 31.07,28.64 39.35,35.83 8.66,7.53 17.88,10.23 25.98,7.6 8.53,-2.76 15.29,-11.37 19.35,-24.46 -39.98,-29.1 -78.57,-35.87 -89.75,-37.28 0.74,1.95 1.4,3.89 2.01,5.84zm88.92 27.16c0.1,-0.39 0.2,-0.79 0.29,-1.18 1.81,-7.79 -0.25,-15.3 -6.12,-22.34 -15.45,-18.53 -56.97,-31.77 -95.9,-30.92 3.6,5.64 6.59,11.34 9.03,17.06 7.52,0.76 49.26,6.24 92.7,37.38zm-104.45 -58.53c41.49,-1.58 85.01,12.19 101.82,32.34 6.75,8.1 9.09,16.83 6.97,25.95 -0.23,0.98 -0.47,1.94 -0.73,2.88 0.22,0.17 0.44,0.33 0.66,0.49 7.71,5.82 16.85,5.62 25.73,-0.58 17.78,-12.4 30.71,-45.85 21.63,-75.89 -3.24,-10.68 -10.95,-18.34 -22.93,-22.75 -31.73,-11.71 -91.91,1.7 -138.02,30.53l-0.24 0.16c1.81,2.28 3.51,4.57 5.11,6.87zm-161.16 61.18c-0.26,-0.95 -0.5,-1.91 -0.73,-2.89 -2.13,-9.12 0.22,-17.85 6.98,-25.95 16.81,-20.15 60.33,-33.92 101.82,-32.34 1.6,-2.3 3.3,-4.59 5.1,-6.87l-0.17 -0.12c-46.12,-28.85 -106.32,-42.28 -138.09,-30.57 -11.98,4.41 -19.69,12.07 -22.92,22.75 -9.08,30.04 3.84,63.49 21.62,75.89 8.89,6.2 18.03,6.4 25.74,0.58 0.22,-0.16 0.43,-0.32 0.65,-0.48zm105.35 -57.09c-38.94,-0.84 -80.45,12.39 -95.9,30.92 -5.88,7.04 -7.94,14.55 -6.12,22.34 0.09,0.39 0.18,0.79 0.28,1.18 43.46,-31.15 85.21,-36.63 92.7,-37.38 2.44,-5.72 5.44,-11.42 9.04,-17.06z"/>
 </g>
</svg>
